<mxfile host="app.diagrams.net" modified="2024-05-18T13:42:01.210Z" agent="Mozilla/5.0 (X11; Ubuntu; Linux x86_64; rv:124.0) Gecko/20100101 Firefox/124.0" version="24.4.4" etag="Qbjwtj3hVCdXXK0Wh31x" type="github">
  <diagram name="Page-1" id="2MX_NK4iz6jhbrEgOJVV">
    <mxGraphModel>
      <root>
        <mxCell id="0" />
        <mxCell id="1" parent="0" />
      </root>
    </mxGraphModel>
  </diagram>
</mxfile>
